<?xml version="1.0" encoding="utf-8"?>
<!-- Generator: Adobe Illustrator 24.3.0, SVG Export Plug-In . SVG Version: 6.00 Build 0)  -->
<svg version="1.1" id="Layer_1" xmlns="http://www.w3.org/2000/svg" xmlns:xlink="http://www.w3.org/1999/xlink" x="0px" y="0px"
	 viewBox="0 0 52 52" style="enable-background:new 0 0 52 52;" xml:space="preserve">
<style type="text/css">
	.st0{fill:#1BADCC;}
	.st1{fill:#FFFFFF;}
</style>
<circle class="st0" cx="26.1" cy="26" r="25.1"/>
<g>
	<circle class="st0" cx="26.1" cy="26" r="23.3"/>
	<g>
		<path class="st1" d="M17.5,33.3c-0.1-0.1-0.2-0.2-0.2-0.4v-5.1l-5.7-8.7c0-0.1-0.1-0.2-0.1-0.3c0-0.1,0-0.2,0.1-0.3
			c0.1-0.1,0.2-0.1,0.3-0.1H13c0.3,0,0.5,0.1,0.6,0.4l4.7,7l4.7-7c0.2-0.2,0.4-0.4,0.6-0.4h1.1c0.1,0,0.2,0,0.3,0.1
			c0.1,0.1,0.2,0.2,0.2,0.3c0,0.1,0,0.2-0.1,0.3l-5.7,8.7v5.1c0,0.1-0.1,0.3-0.2,0.4c-0.1,0.1-0.2,0.1-0.4,0.1h-1.1
			C17.7,33.5,17.6,33.4,17.5,33.3z"/>
		<path class="st1" d="M29.6,32c-1.1-1-1.7-2.5-1.7-4.5v-8.6c0-0.2,0-0.3,0.1-0.4s0.2-0.1,0.4-0.1h1.1c0.2,0,0.3,0,0.4,0.1
			s0.2,0.2,0.2,0.4v8.6c0,1.4,0.4,2.4,1.1,3.1s1.7,1,3.1,1c1.3,0,2.3-0.3,3-1s1.1-1.7,1.1-3.1v-8.6c0-0.2,0-0.3,0.1-0.4
			s0.2-0.1,0.4-0.1H40c0.2,0,0.3,0,0.4,0.1c0.1,0.1,0.2,0.2,0.2,0.4v8.6c0,2-0.5,3.5-1.6,4.5s-2.7,1.5-4.7,1.5S30.7,33,29.6,32z"/>
	</g>
</g>
</svg>
