<?xml version="1.0" encoding="utf-8"?>
<!-- Generator: Adobe Illustrator 24.3.0, SVG Export Plug-In . SVG Version: 6.00 Build 0)  -->
<svg version="1.1" id="Layer_1" xmlns="http://www.w3.org/2000/svg" xmlns:xlink="http://www.w3.org/1999/xlink" x="0px" y="0px"
	 viewBox="0 0 52 52" style="enable-background:new 0 0 52 52;" xml:space="preserve">
<style type="text/css">
	.st0{fill:#1BADCC;}
	.st1{clip-path:url(#SVGID_2_);fill:#FFFFFF;}
	.st2{fill:#FFFFFF;}
</style>
<circle class="st0" cx="25.9" cy="26" r="25.1"/>
<g>
	<g>
		<defs>
			<rect id="SVGID_1_" x="14" y="13" width="23.8" height="29.9"/>
		</defs>
		<clipPath id="SVGID_2_">
			<use xlink:href="#SVGID_1_"  style="overflow:visible;"/>
		</clipPath>
		<path class="st1" d="M37.4,13.5c-0.3-0.2-0.7-0.4-1.3-0.4c-0.5,0-1.1-0.1-2-0.1c-0.6,0-1.2,0-1.6,0c-0.4,0-0.8,0.1-1.1,0.2
			c0,0,0,0,0,0c-0.3,0.1-0.6,0.3-0.7,0.5c-0.1,0.2-0.3,0.4-0.4,0.7l-3.1,6.9c0,0,0,0,0,0c-0.3,0.8-0.6,1.5-0.9,2.1
			c-0.1,0.3-0.2,0.6-0.4,0.9c-0.1-0.3-0.3-0.6-0.4-1c-0.3-0.7-0.6-1.4-0.9-2.2l-3.2-7c0,0,0,0,0,0c-0.1-0.2-0.2-0.4-0.4-0.6
			c0,0,0,0,0,0c-0.2-0.2-0.4-0.4-0.8-0.5c-0.3-0.1-0.6-0.2-1.1-0.2c-0.4,0-1,0-1.7,0c-0.9,0-1.5,0-1.9,0.1c-0.6,0-1,0.2-1.3,0.4
			c-0.2,0.2-0.5,0.6-0.3,1.3c0.1,0.3,0.3,0.8,0.6,1.4l2.7,5.4c0.1,0.3,0.5,0.4,0.8,0.3c0.3-0.1,0.4-0.5,0.3-0.8l-2.7-5.4
			c-0.3-0.6-0.4-1-0.5-1.2c0-0.1,0-0.1,0-0.1c0,0,0.2-0.1,0.6-0.1c0.4,0,1-0.1,1.8-0.1c0.7,0,1.2,0,1.6,0c0.4,0,0.6,0.1,0.8,0.1
			c0.2,0.1,0.2,0.1,0.3,0.1c0.1,0.1,0.2,0.2,0.2,0.4l3.2,7c0.3,0.7,0.6,1.4,0.9,2.1c0.3,0.8,0.6,1.5,0.9,2.3
			c0.1,0.2,0.3,0.4,0.5,0.4h0c0.2,0,0.5-0.2,0.6-0.4c0.3-0.7,0.5-1.5,0.8-2.3c0.3-0.7,0.5-1.3,0.8-2.1l3.1-6.9c0,0,0,0,0-0.1
			c0.1-0.2,0.1-0.3,0.2-0.4c0,0,0,0,0,0c0,0,0.1-0.1,0.2-0.1c0.1,0,0.3-0.1,0.7-0.1c0.4,0,0.9,0,1.5,0c0.9,0,1.5,0,1.9,0.1
			c0.4,0,0.5,0.1,0.6,0.1c0,0,0,0.1,0,0.1c0,0,0,0,0,0c-0.1,0.2-0.2,0.6-0.5,1.1l-7.8,15.5c0,0.1-0.1,0.2-0.1,0.3v10c0,0,0,0,0,0
			c0,0-0.1,0.1-0.2,0.1c-0.1,0-0.4,0.1-0.8,0.1c-0.4,0-0.8,0.1-1.3,0.1c-0.5,0-1,0-1.3-0.1c-0.4,0-0.6-0.1-0.8-0.2
			c-0.1,0-0.2-0.1-0.2-0.1c0,0,0,0,0,0v-10c0-0.1,0-0.2-0.1-0.3l-2.7-5.4c-0.1-0.3-0.5-0.4-0.8-0.3c-0.3,0.1-0.4,0.5-0.3,0.8
			l2.7,5.3v9.9c0,0.3,0.1,0.5,0.3,0.7c0.2,0.2,0.4,0.4,0.8,0.5c0,0,0,0,0,0c0.3,0.1,0.6,0.1,1,0.2c0.4,0,0.9,0.1,1.5,0.1
			c0.6,0,1.1,0,1.5-0.1c0.4,0,0.7-0.1,1-0.2c0,0,0,0,0,0c0.3-0.1,0.6-0.3,0.7-0.5c0,0,0,0,0,0c0.2-0.2,0.3-0.5,0.3-0.8v-9.9
			l7.7-15.4c0.3-0.6,0.5-1,0.6-1.4C37.9,14.1,37.6,13.7,37.4,13.5L37.4,13.5z M37.4,13.5"/>
	</g>
	<path class="st2" d="M19.1,22.9L19.1,22.9c-0.4,0-0.8,0.3-0.8,0.8c0,0.4,0.3,0.8,0.8,0.8c0.4,0,0.8-0.3,0.8-0.8
		C19.9,23.2,19.6,22.9,19.1,22.9L19.1,22.9z M19.1,22.9"/>
</g>
</svg>
