<?xml version="1.0" encoding="utf-8"?>
<!-- Generator: Adobe Illustrator 22.1.0, SVG Export Plug-In . SVG Version: 6.00 Build 0)  -->
<svg version="1.1" id="Layer_1" xmlns="http://www.w3.org/2000/svg" xmlns:xlink="http://www.w3.org/1999/xlink" x="0px" y="0px"
	 viewBox="0 0 52 52" style="enable-background:new 0 0 52 52;" xml:space="preserve">
<style type="text/css">
	.st0{fill:#6534FF;}
	.st1{fill:#FFFFFF;}
</style>
<circle class="st0" cx="26" cy="26" r="25.1"/>
<path class="st1" d="M19,35.2c-1,0.7-2.4,0.9-3.6,0.8c-0.6-0.1-1.2-0.2-1.7-0.5c-0.2-0.1-1.2-0.5-1.3-0.8c0-0.3,0.7-1.2,0.9-1.5
	c0.3-0.4,0.5-0.9,0.8-1.3c1.1,0.9,2.6,1,3.2-0.5c0.2-0.5,0.2-0.3,0-0.8c-0.5-1.4-1.1-2.7-1.7-4c-1.1-2.6-2.2-5.1-3.2-7.7
	c1.2,0,2.4,0,3.5,0c0.3,0,0.5-0.1,0.7,0.1c0.2,0.2,0.3,0.9,0.4,1.2c0.8,2.2,1.6,4.5,2.5,6.7c0.7-2.2,1.5-4.5,2.2-6.7
	c0.1-0.3,0.2-1,0.4-1.2c0.2-0.2,0.2-0.1,0.6-0.1c1.2,0,2.3,0,3.5,0c-1,2.6-2,5.2-3,7.8c-0.6,1.5-1.2,3.1-1.8,4.6
	C20.8,32.8,20.3,34.3,19,35.2z"/>
<path class="st1" d="M39.6,19c0,2.6,0,5.2,0,7.8c0,1.4,0,2.7,0,4.1c0,0.2,0,0.4-0.1,0.5c-0.3,0.2-1.7,0-2.1,0c-0.3,0-1.7,0.2-1.9,0
	c-0.2-0.2,0-1.7,0-2c-1.3,2.3-4.7,3-6.7,1.3c-1.5-1.2-1.6-3-1.6-4.8c0-1.7,0-3.3,0-5c0-0.4-0.2-1.4,0-1.7c0.1-0.2,0.6-0.1,0.9-0.1
	c0.9,0,1.7,0,2.6,0c0.6,0,0.5-0.1,0.6,0.3c0.2,0.6,0,1.5,0,2.1c0,0.9,0,1.8,0,2.7c0,1.5-0.2,3.8,2,3.8c2.3,0,2.3-2.5,2.3-4.1
	c0-1,0-2,0-3c0-0.3-0.2-1.6,0-1.8c0.2-0.2,1.7,0,1.9,0C38.2,19,38.9,19,39.6,19z"/>
</svg>
